<mxfile host="app.diagrams.net" agent="Mozilla/5.0 (Windows NT 10.0; Win64; x64) AppleWebKit/537.36 (KHTML, like Gecko) Chrome/126.0.0.0 Safari/537.36 OPR/112.0.0.0" version="24.7.16" pages="2">
  <diagram name="Страница-1" id="Page-1">
    <mxGraphModel dx="2402" dy="894" grid="1" gridSize="10" guides="1" tooltips="1" connect="1" arrows="1" fold="1" page="1" pageScale="1" pageWidth="850" pageHeight="1100" math="0" shadow="0">
      <root>
        <mxCell id="0" />
        <mxCell id="1" parent="0" />
        <UserObject label="" tags="Соединительная_линия Блок-схема" id="82">
          <mxCell parent="1" vertex="1" visible="0">
            <mxGeometry as="geometry" />
          </mxCell>
        </UserObject>
        <mxCell id="9Y2cKsWY8XPU8Xiy0OJ_-97" value="" style="rounded=0;whiteSpace=wrap;html=1;" parent="1" vertex="1">
          <mxGeometry x="135" y="680" width="140" height="81" as="geometry" />
        </mxCell>
        <mxCell id="9Y2cKsWY8XPU8Xiy0OJ_-98" value="&lt;font style=&quot;font-size: 16px;&quot;&gt;A0.1&lt;/font&gt;" style="text;html=1;align=center;verticalAlign=middle;whiteSpace=wrap;rounded=0;" parent="1" vertex="1">
          <mxGeometry x="227" y="731" width="53" height="30" as="geometry" />
        </mxCell>
        <mxCell id="9Y2cKsWY8XPU8Xiy0OJ_-99" value="&lt;font face=&quot;Arial&quot; style=&quot;font-size: 14px;&quot;&gt;Создание курса&lt;/font&gt;" style="text;html=1;align=center;verticalAlign=middle;whiteSpace=wrap;rounded=0;" parent="1" vertex="1">
          <mxGeometry x="155" y="691" width="100" height="30" as="geometry" />
        </mxCell>
        <mxCell id="9Y2cKsWY8XPU8Xiy0OJ_-100" value="" style="rounded=0;whiteSpace=wrap;html=1;" parent="1" vertex="1">
          <mxGeometry x="350" y="770" width="140" height="81" as="geometry" />
        </mxCell>
        <mxCell id="9Y2cKsWY8XPU8Xiy0OJ_-101" value="&lt;font style=&quot;font-size: 16px;&quot;&gt;A0.2&lt;/font&gt;" style="text;html=1;align=center;verticalAlign=middle;whiteSpace=wrap;rounded=0;" parent="1" vertex="1">
          <mxGeometry x="437" y="821" width="53" height="30" as="geometry" />
        </mxCell>
        <mxCell id="9Y2cKsWY8XPU8Xiy0OJ_-102" value="&lt;font face=&quot;Arial&quot; style=&quot;font-size: 14px;&quot;&gt;Создание тестов&lt;/font&gt;" style="text;html=1;align=center;verticalAlign=middle;whiteSpace=wrap;rounded=0;" parent="1" vertex="1">
          <mxGeometry x="370" y="780.5" width="100" height="29.5" as="geometry" />
        </mxCell>
        <mxCell id="sh7kLWZAsSp9DYvqXfyt-92" style="edgeStyle=orthogonalEdgeStyle;rounded=0;orthogonalLoop=1;jettySize=auto;html=1;exitX=1;exitY=0.5;exitDx=0;exitDy=0;entryX=0;entryY=0.5;entryDx=0;entryDy=0;" parent="1" source="9Y2cKsWY8XPU8Xiy0OJ_-106" target="sh7kLWZAsSp9DYvqXfyt-89" edge="1">
          <mxGeometry relative="1" as="geometry" />
        </mxCell>
        <mxCell id="9Y2cKsWY8XPU8Xiy0OJ_-106" value="" style="rounded=0;whiteSpace=wrap;html=1;" parent="1" vertex="1">
          <mxGeometry x="586.5" y="846" width="140" height="110" as="geometry" />
        </mxCell>
        <mxCell id="9Y2cKsWY8XPU8Xiy0OJ_-107" value="&lt;font style=&quot;font-size: 16px;&quot;&gt;A0.3&lt;/font&gt;" style="text;html=1;align=center;verticalAlign=middle;whiteSpace=wrap;rounded=0;" parent="1" vertex="1">
          <mxGeometry x="673.5" y="926" width="53" height="30" as="geometry" />
        </mxCell>
        <mxCell id="9Y2cKsWY8XPU8Xiy0OJ_-108" value="&lt;font face=&quot;Arial&quot;&gt;&lt;span style=&quot;font-size: 14px;&quot;&gt;Прохождение тестов&lt;/span&gt;&lt;/font&gt;" style="text;html=1;align=center;verticalAlign=middle;whiteSpace=wrap;rounded=0;" parent="1" vertex="1">
          <mxGeometry x="606.5" y="866" width="100" height="51" as="geometry" />
        </mxCell>
        <mxCell id="9Y2cKsWY8XPU8Xiy0OJ_-109" value="" style="endArrow=classic;html=1;rounded=0;entryX=0;entryY=0.25;entryDx=0;entryDy=0;exitX=0;exitY=1;exitDx=0;exitDy=0;" parent="1" source="9Y2cKsWY8XPU8Xiy0OJ_-112" target="9Y2cKsWY8XPU8Xiy0OJ_-97" edge="1">
          <mxGeometry width="50" height="50" relative="1" as="geometry">
            <mxPoint x="10" y="700" as="sourcePoint" />
            <mxPoint x="60" y="691" as="targetPoint" />
          </mxGeometry>
        </mxCell>
        <mxCell id="9Y2cKsWY8XPU8Xiy0OJ_-112" value="&lt;font face=&quot;Arial&quot; style=&quot;font-size: 14px;&quot;&gt;Информация пользователя&lt;/font&gt;" style="text;html=1;align=center;verticalAlign=middle;whiteSpace=wrap;rounded=0;" parent="1" vertex="1">
          <mxGeometry x="-70" y="680" width="200" height="20" as="geometry" />
        </mxCell>
        <mxCell id="9Y2cKsWY8XPU8Xiy0OJ_-115" value="" style="endArrow=classic;html=1;rounded=0;entryX=0;entryY=0.75;entryDx=0;entryDy=0;" parent="1" target="9Y2cKsWY8XPU8Xiy0OJ_-97" edge="1">
          <mxGeometry width="50" height="50" relative="1" as="geometry">
            <mxPoint x="-70" y="740" as="sourcePoint" />
            <mxPoint x="-30" y="760" as="targetPoint" />
          </mxGeometry>
        </mxCell>
        <mxCell id="9Y2cKsWY8XPU8Xiy0OJ_-116" value="&lt;font face=&quot;Arial&quot;&gt;&lt;span style=&quot;font-size: 14px;&quot;&gt;Учебные материалы&lt;/span&gt;&lt;/font&gt;" style="text;html=1;align=center;verticalAlign=middle;whiteSpace=wrap;rounded=0;" parent="1" vertex="1">
          <mxGeometry x="-70" y="721" width="200" height="20" as="geometry" />
        </mxCell>
        <mxCell id="9Y2cKsWY8XPU8Xiy0OJ_-121" value="" style="endArrow=classic;html=1;rounded=0;entryX=0.5;entryY=0;entryDx=0;entryDy=0;" parent="1" edge="1">
          <mxGeometry width="50" height="50" relative="1" as="geometry">
            <mxPoint x="205" y="620" as="sourcePoint" />
            <mxPoint x="204.58" y="680" as="targetPoint" />
          </mxGeometry>
        </mxCell>
        <mxCell id="9Y2cKsWY8XPU8Xiy0OJ_-122" value="&lt;font face=&quot;Arial&quot; style=&quot;font-size: 14px;&quot;&gt;Доступ к созданию курсов&lt;/font&gt;" style="text;html=1;align=center;verticalAlign=middle;whiteSpace=wrap;rounded=0;" parent="1" vertex="1">
          <mxGeometry x="148.5" y="580" width="126.5" height="30" as="geometry" />
        </mxCell>
        <mxCell id="9Y2cKsWY8XPU8Xiy0OJ_-123" value="" style="endArrow=classic;html=1;rounded=0;edgeStyle=orthogonalEdgeStyle;exitX=1;exitY=0.5;exitDx=0;exitDy=0;entryX=0;entryY=0.5;entryDx=0;entryDy=0;curved=0;" parent="1" source="9Y2cKsWY8XPU8Xiy0OJ_-97" target="9Y2cKsWY8XPU8Xiy0OJ_-100" edge="1">
          <mxGeometry width="50" height="50" relative="1" as="geometry">
            <mxPoint x="300" y="840" as="sourcePoint" />
            <mxPoint x="350" y="790" as="targetPoint" />
          </mxGeometry>
        </mxCell>
        <mxCell id="9Y2cKsWY8XPU8Xiy0OJ_-131" value="" style="endArrow=classic;html=1;rounded=0;edgeStyle=orthogonalEdgeStyle;exitX=1;exitY=0.5;exitDx=0;exitDy=0;entryX=0;entryY=0.5;entryDx=0;entryDy=0;curved=0;" parent="1" source="9Y2cKsWY8XPU8Xiy0OJ_-100" target="9Y2cKsWY8XPU8Xiy0OJ_-106" edge="1">
          <mxGeometry width="50" height="50" relative="1" as="geometry">
            <mxPoint x="285" y="731" as="sourcePoint" />
            <mxPoint x="365" y="901" as="targetPoint" />
          </mxGeometry>
        </mxCell>
        <mxCell id="9Y2cKsWY8XPU8Xiy0OJ_-132" value="" style="endArrow=classic;html=1;rounded=0;exitX=1;exitY=0.5;exitDx=0;exitDy=0;" parent="1" edge="1">
          <mxGeometry width="50" height="50" relative="1" as="geometry">
            <mxPoint x="940" y="1011" as="sourcePoint" />
            <mxPoint x="1063.5" y="1011" as="targetPoint" />
          </mxGeometry>
        </mxCell>
        <mxCell id="9Y2cKsWY8XPU8Xiy0OJ_-135" value="&lt;font face=&quot;Arial&quot; style=&quot;font-size: 14px;&quot;&gt;Отчет о прогрессе&lt;/font&gt;" style="text;html=1;align=center;verticalAlign=middle;whiteSpace=wrap;rounded=0;" parent="1" vertex="1">
          <mxGeometry x="953.5" y="976" width="95" height="30" as="geometry" />
        </mxCell>
        <mxCell id="sh7kLWZAsSp9DYvqXfyt-85" style="edgeStyle=orthogonalEdgeStyle;rounded=1;orthogonalLoop=1;jettySize=auto;html=1;exitX=0.5;exitY=0;exitDx=0;exitDy=0;entryX=0.5;entryY=1;entryDx=0;entryDy=0;curved=0;" parent="1" source="9Y2cKsWY8XPU8Xiy0OJ_-137" target="9Y2cKsWY8XPU8Xiy0OJ_-97" edge="1">
          <mxGeometry relative="1" as="geometry">
            <Array as="points">
              <mxPoint x="320" y="1100" />
              <mxPoint x="205" y="1100" />
            </Array>
          </mxGeometry>
        </mxCell>
        <mxCell id="sh7kLWZAsSp9DYvqXfyt-86" style="edgeStyle=orthogonalEdgeStyle;rounded=1;orthogonalLoop=1;jettySize=auto;html=1;exitX=0.5;exitY=0;exitDx=0;exitDy=0;entryX=0;entryY=1;entryDx=0;entryDy=0;curved=0;" parent="1" source="9Y2cKsWY8XPU8Xiy0OJ_-137" target="9Y2cKsWY8XPU8Xiy0OJ_-101" edge="1">
          <mxGeometry relative="1" as="geometry">
            <Array as="points">
              <mxPoint x="320" y="1100" />
              <mxPoint x="437" y="1100" />
            </Array>
          </mxGeometry>
        </mxCell>
        <mxCell id="sh7kLWZAsSp9DYvqXfyt-87" style="edgeStyle=orthogonalEdgeStyle;rounded=1;orthogonalLoop=1;jettySize=auto;html=1;exitX=0.5;exitY=0;exitDx=0;exitDy=0;entryX=0.5;entryY=1;entryDx=0;entryDy=0;curved=0;" parent="1" source="9Y2cKsWY8XPU8Xiy0OJ_-137" target="9Y2cKsWY8XPU8Xiy0OJ_-106" edge="1">
          <mxGeometry relative="1" as="geometry">
            <Array as="points">
              <mxPoint x="320" y="1100" />
              <mxPoint x="657" y="1100" />
            </Array>
          </mxGeometry>
        </mxCell>
        <mxCell id="sh7kLWZAsSp9DYvqXfyt-94" style="edgeStyle=orthogonalEdgeStyle;rounded=1;orthogonalLoop=1;jettySize=auto;html=1;exitX=0.5;exitY=0;exitDx=0;exitDy=0;entryX=0.5;entryY=1;entryDx=0;entryDy=0;curved=0;" parent="1" source="9Y2cKsWY8XPU8Xiy0OJ_-137" target="sh7kLWZAsSp9DYvqXfyt-89" edge="1">
          <mxGeometry relative="1" as="geometry">
            <Array as="points">
              <mxPoint x="320" y="1100" />
              <mxPoint x="870" y="1100" />
            </Array>
          </mxGeometry>
        </mxCell>
        <mxCell id="9Y2cKsWY8XPU8Xiy0OJ_-137" value="&lt;font face=&quot;Arial&quot; style=&quot;font-size: 14px;&quot;&gt;Веб-приложение&lt;/font&gt;" style="text;html=1;align=center;verticalAlign=middle;whiteSpace=wrap;rounded=0;" parent="1" vertex="1">
          <mxGeometry x="250" y="1190" width="140" height="25.5" as="geometry" />
        </mxCell>
        <mxCell id="sh7kLWZAsSp9DYvqXfyt-99" style="edgeStyle=orthogonalEdgeStyle;rounded=0;orthogonalLoop=1;jettySize=auto;html=1;exitX=0.5;exitY=0;exitDx=0;exitDy=0;entryX=0.5;entryY=1;entryDx=0;entryDy=0;" parent="1" source="9Y2cKsWY8XPU8Xiy0OJ_-139" target="9Y2cKsWY8XPU8Xiy0OJ_-101" edge="1">
          <mxGeometry relative="1" as="geometry">
            <Array as="points" />
          </mxGeometry>
        </mxCell>
        <mxCell id="sh7kLWZAsSp9DYvqXfyt-100" style="edgeStyle=orthogonalEdgeStyle;rounded=1;orthogonalLoop=1;jettySize=auto;html=1;exitX=0.5;exitY=0;exitDx=0;exitDy=0;entryX=0.5;entryY=1;entryDx=0;entryDy=0;curved=0;" parent="1" source="9Y2cKsWY8XPU8Xiy0OJ_-139" target="9Y2cKsWY8XPU8Xiy0OJ_-107" edge="1">
          <mxGeometry relative="1" as="geometry">
            <Array as="points">
              <mxPoint x="464" y="1150" />
              <mxPoint x="700" y="1150" />
            </Array>
          </mxGeometry>
        </mxCell>
        <mxCell id="9Y2cKsWY8XPU8Xiy0OJ_-139" value="&lt;font face=&quot;Arial&quot; style=&quot;font-size: 14px;&quot;&gt;Пользователь&lt;/font&gt;" style="text;html=1;align=center;verticalAlign=middle;whiteSpace=wrap;rounded=0;" parent="1" vertex="1">
          <mxGeometry x="411" y="1250" width="105" height="20" as="geometry" />
        </mxCell>
        <mxCell id="sh7kLWZAsSp9DYvqXfyt-82" value="&lt;font face=&quot;Arial&quot; style=&quot;font-size: 14px;&quot;&gt;Созданный курс&lt;/font&gt;" style="text;html=1;align=center;verticalAlign=middle;whiteSpace=wrap;rounded=0;" parent="1" vertex="1">
          <mxGeometry x="320" y="721" width="126.5" height="30" as="geometry" />
        </mxCell>
        <mxCell id="sh7kLWZAsSp9DYvqXfyt-83" value="&lt;font face=&quot;Arial&quot; style=&quot;font-size: 14px;&quot;&gt;Созданный &lt;br&gt;тест&lt;/font&gt;" style="text;html=1;align=center;verticalAlign=middle;whiteSpace=wrap;rounded=0;" parent="1" vertex="1">
          <mxGeometry x="516" y="795.5" width="126.5" height="30" as="geometry" />
        </mxCell>
        <mxCell id="sh7kLWZAsSp9DYvqXfyt-89" value="" style="rounded=0;whiteSpace=wrap;html=1;" parent="1" vertex="1">
          <mxGeometry x="800" y="956" width="140" height="110" as="geometry" />
        </mxCell>
        <mxCell id="sh7kLWZAsSp9DYvqXfyt-90" value="&lt;font style=&quot;font-size: 16px;&quot;&gt;A0.4&lt;/font&gt;" style="text;html=1;align=center;verticalAlign=middle;whiteSpace=wrap;rounded=0;" parent="1" vertex="1">
          <mxGeometry x="887" y="1036" width="53" height="30" as="geometry" />
        </mxCell>
        <mxCell id="sh7kLWZAsSp9DYvqXfyt-91" value="&lt;font face=&quot;Arial&quot;&gt;&lt;span style=&quot;font-size: 14px;&quot;&gt;Создание отчета&lt;/span&gt;&lt;/font&gt;" style="text;html=1;align=center;verticalAlign=middle;whiteSpace=wrap;rounded=0;" parent="1" vertex="1">
          <mxGeometry x="820" y="976" width="100" height="51" as="geometry" />
        </mxCell>
        <mxCell id="sh7kLWZAsSp9DYvqXfyt-93" value="&lt;font face=&quot;Arial&quot; style=&quot;font-size: 14px;&quot;&gt;Результат&lt;br&gt;теста&lt;/font&gt;" style="text;html=1;align=center;verticalAlign=middle;whiteSpace=wrap;rounded=0;" parent="1" vertex="1">
          <mxGeometry x="750" y="910" width="126.5" height="30" as="geometry" />
        </mxCell>
        <mxCell id="sh7kLWZAsSp9DYvqXfyt-98" style="edgeStyle=orthogonalEdgeStyle;rounded=1;orthogonalLoop=1;jettySize=auto;html=1;exitX=0.5;exitY=0;exitDx=0;exitDy=0;entryX=0.181;entryY=1.051;entryDx=0;entryDy=0;entryPerimeter=0;curved=0;" parent="1" source="9Y2cKsWY8XPU8Xiy0OJ_-139" target="9Y2cKsWY8XPU8Xiy0OJ_-97" edge="1">
          <mxGeometry relative="1" as="geometry">
            <Array as="points">
              <mxPoint x="464" y="1150" />
              <mxPoint x="160" y="1150" />
            </Array>
          </mxGeometry>
        </mxCell>
      </root>
    </mxGraphModel>
  </diagram>
  <diagram name="Страница-2" id="Page-2">
    <mxGraphModel style="default-style2">
      <root>
        <mxCell id="0" />
        <mxCell id="1" parent="0" />
        <UserObject label="" Name="Покупка абонимента" tags="Background" id="2">
          <mxCell style="vsdxID=49;fillColor=none;gradientColor=none;strokeColor=none;spacingTop=-1;spacingBottom=-1;spacingLeft=-1;spacingRight=-1;points=[[0,0.08,0],[0,0.17,0],[0,0.25,0],[0,0.33,0],[0,0.42,0],[0,0.5,0],[0,0.58,0],[0,0.67,0],[0,0.75,0],[0,0.83,0],[0,0.92,0],[1,0.08,0],[1,0.17,0],[1,0.25,0],[1,0.33,0],[1,0.42,0],[1,0.5,0],[1,0.58,0],[1,0.67,0],[1,0.75,0],[1,0.83,0],[1,0.92,0],[0.06,0,0],[0.13,0,0],[0.19,0,0],[0.25,0,0],[0.31,0,0],[0.37,0,0],[0.44,0,0],[0.5,0,0],[0.56,0,0],[0.63,0,0],[0.69,0,0],[0.75,0,0],[0.81,0,0],[0.88,0,0],[0.94,0,0],[0.06,1,0],[0.13,1,0],[0.19,1,0],[0.25,1,0],[0.31,1,0],[0.37,1,0],[0.44,1,0],[0.5,1,0],[0.56,1,0],[0.63,1,0],[0.69,1,0],[0.75,1,0],[0.81,1,0],[0.88,1,0],[0.94,1,0]];labelBackgroundColor=none;rounded=0;html=1;whiteSpace=wrap;" vertex="1" parent="1">
            <mxGeometry x="591" y="327" width="120" height="80" as="geometry" />
          </mxCell>
        </UserObject>
        <mxCell id="3" style="vsdxID=50;fillColor=#4672c4;gradientColor=none;shape=stencil(nZBLDoAgDERP0z3SIyjew0SURgSD+Lu9kMZoXLhwN9O+tukAlrNpJg1SzDH4QW/URgNYgZTkjA4UkwJUgGXng+6DX1zLfmoymdXo17xh5zmRJ6Q42BWCfc2oJfdAr+Yv+AP9Cb7OJ3H/2JG1HNGz/84klThPVCc=);strokeColor=#000000;spacingTop=-1;spacingBottom=-1;spacingLeft=-1;spacingRight=-1;points=[[0,0.08,0],[0,0.17,0],[0,0.25,0],[0,0.33,0],[0,0.42,0],[0,0.5,0],[0,0.58,0],[0,0.67,0],[0,0.75,0],[0,0.83,0],[0,0.92,0],[1,0.08,0],[1,0.17,0],[1,0.25,0],[1,0.33,0],[1,0.42,0],[1,0.5,0],[1,0.58,0],[1,0.67,0],[1,0.75,0],[1,0.83,0],[1,0.92,0],[0.06,0,0],[0.13,0,0],[0.19,0,0],[0.25,0,0],[0.31,0,0],[0.37,0,0],[0.44,0,0],[0.5,0,0],[0.56,0,0],[0.63,0,0],[0.69,0,0],[0.75,0,0],[0.81,0,0],[0.88,0,0],[0.94,0,0],[0.06,1,0],[0.13,1,0],[0.19,1,0],[0.25,1,0],[0.31,1,0],[0.37,1,0],[0.44,1,0],[0.5,1,0],[0.56,1,0],[0.63,1,0],[0.69,1,0],[0.75,1,0],[0.81,1,0],[0.88,1,0],[0.94,1,0]];labelBackgroundColor=none;rounded=0;html=1;whiteSpace=wrap;" vertex="1" parent="2">
          <mxGeometry width="120" height="80" as="geometry" />
        </mxCell>
        <mxCell id="4" value="&lt;div style=&quot;font-size: 1px&quot;&gt;&lt;p style=&quot;text-align:right;margin-left:0;margin-right:0;margin-top:0px;margin-bottom:0px;text-indent:0;vertical-align:bottom;direction:ltr;&quot;&gt;&lt;font style=&quot;font-size:14.11px;font-family:Calibri;color:#000000;direction:ltr;letter-spacing:0px;line-height:120%;opacity:1&quot;&gt;A0&lt;/font&gt;&lt;font style=&quot;font-size:14.11px;font-family:Calibri;color:#000000;direction:ltr;letter-spacing:0px;line-height:120%;opacity:1&quot;&gt;&lt;br/&gt;&lt;/font&gt;&lt;/p&gt;&lt;/div&gt;" style="verticalAlign=bottom;align=right;overflow=width;vsdxID=51;fillColor=none;gradientColor=none;strokeColor=none;spacingTop=-3;spacingBottom=-3;points=[[0,0.08,0],[0,0.17,0],[0,0.25,0],[0,0.33,0],[0,0.42,0],[0,0.5,0],[0,0.58,0],[0,0.67,0],[0,0.75,0],[0,0.83,0],[0,0.92,0],[1,0.08,0],[1,0.17,0],[1,0.25,0],[1,0.33,0],[1,0.42,0],[1,0.5,0],[1,0.58,0],[1,0.67,0],[1,0.75,0],[1,0.83,0],[1,0.92,0],[0.06,0,0],[0.13,0,0],[0.19,0,0],[0.25,0,0],[0.31,0,0],[0.37,0,0],[0.44,0,0],[0.5,0,0],[0.56,0,0],[0.63,0,0],[0.69,0,0],[0.75,0,0],[0.81,0,0],[0.88,0,0],[0.94,0,0],[0.06,1,0],[0.13,1,0],[0.19,1,0],[0.25,1,0],[0.31,1,0],[0.37,1,0],[0.44,1,0],[0.5,1,0],[0.56,1,0],[0.63,1,0],[0.69,1,0],[0.75,1,0],[0.81,1,0],[0.88,1,0],[0.94,1,0]];labelBackgroundColor=none;rounded=0;html=1;whiteSpace=wrap;" vertex="1" parent="2">
          <mxGeometry y="63" width="120" height="16" as="geometry" />
        </mxCell>
        <mxCell id="5" value="&lt;div style=&quot;font-size: 1px&quot;&gt;&lt;p style=&quot;text-align:right;margin-left:0;margin-right:0;margin-top:0px;margin-bottom:0px;text-indent:0;vertical-align:bottom;direction:ltr;&quot;&gt;&lt;font style=&quot;font-size:14.11px;font-family:Calibri;color:#000000;direction:ltr;letter-spacing:0px;line-height:120%;opacity:1&quot;&gt;&lt;br/&gt;&lt;/font&gt;&lt;/p&gt;&lt;/div&gt;" style="verticalAlign=bottom;align=right;overflow=width;vsdxID=52;fillColor=none;gradientColor=none;strokeColor=none;spacingBottom=-3;points=[[0,0.08,0],[0,0.17,0],[0,0.25,0],[0,0.33,0],[0,0.42,0],[0,0.5,0],[0,0.58,0],[0,0.67,0],[0,0.75,0],[0,0.83,0],[0,0.92,0],[1,0.08,0],[1,0.17,0],[1,0.25,0],[1,0.33,0],[1,0.42,0],[1,0.5,0],[1,0.58,0],[1,0.67,0],[1,0.75,0],[1,0.83,0],[1,0.92,0],[0.06,0,0],[0.13,0,0],[0.19,0,0],[0.25,0,0],[0.31,0,0],[0.37,0,0],[0.44,0,0],[0.5,0,0],[0.56,0,0],[0.63,0,0],[0.69,0,0],[0.75,0,0],[0.81,0,0],[0.88,0,0],[0.94,0,0],[0.06,1,0],[0.13,1,0],[0.19,1,0],[0.25,1,0],[0.31,1,0],[0.37,1,0],[0.44,1,0],[0.5,1,0],[0.56,1,0],[0.63,1,0],[0.69,1,0],[0.75,1,0],[0.81,1,0],[0.88,1,0],[0.94,1,0]];labelBackgroundColor=none;rounded=0;html=1;whiteSpace=wrap;" vertex="1" parent="2">
          <mxGeometry y="80" width="120" height="22" as="geometry" />
        </mxCell>
        <mxCell id="6" value="&lt;div style=&quot;font-size: 1px&quot;&gt;&lt;font style=&quot;font-size:14.11px;font-family:Calibri;color:#000000;direction:ltr;letter-spacing:0px;line-height:120%;opacity:1&quot;&gt;Запись на приём &lt;br/&gt;&lt;/font&gt;&lt;/div&gt;" style="verticalAlign=middle;align=center;overflow=width;vsdxID=53;fillColor=none;gradientColor=none;strokeColor=none;points=[[0,0.08,0],[0,0.17,0],[0,0.25,0],[0,0.33,0],[0,0.42,0],[0,0.5,0],[0,0.58,0],[0,0.67,0],[0,0.75,0],[0,0.83,0],[0,0.92,0],[1,0.08,0],[1,0.17,0],[1,0.25,0],[1,0.33,0],[1,0.42,0],[1,0.5,0],[1,0.58,0],[1,0.67,0],[1,0.75,0],[1,0.83,0],[1,0.92,0],[0.06,0,0],[0.13,0,0],[0.19,0,0],[0.25,0,0],[0.31,0,0],[0.37,0,0],[0.44,0,0],[0.5,0,0],[0.56,0,0],[0.63,0,0],[0.69,0,0],[0.75,0,0],[0.81,0,0],[0.88,0,0],[0.94,0,0],[0.06,1,0],[0.13,1,0],[0.19,1,0],[0.25,1,0],[0.31,1,0],[0.37,1,0],[0.44,1,0],[0.5,1,0],[0.56,1,0],[0.63,1,0],[0.69,1,0],[0.75,1,0],[0.81,1,0],[0.88,1,0],[0.94,1,0]];labelBackgroundColor=none;rounded=0;html=1;whiteSpace=wrap;" vertex="1" parent="2">
          <mxGeometry width="120" height="63" as="geometry" />
        </mxCell>
        <UserObject label="&lt;div style=&quot;font-size: 1px&quot;&gt;&lt;/div&gt;" tags="Background" id="7">
          <mxCell style="verticalAlign=bottom;align=left;overflow=width;vsdxID=55;fillColor=none;gradientColor=none;shape=stencil(nZBLDoAgDERP0z3SIyjew0SURgSD+Lu9kMZoXLhwN9O+tukAlrNpJg1SzDH4QW/URgNYgZTkjA4UkwJUgGXng+6DX1zLfmoymdXo17xh5zmRJ6Q42BWCfc2oJfdAr+Yv+AP9Cb7OJ3H/2JG1HNGz/84klThPVCc=);strokeColor=none;spacingTop=-1;spacingBottom=-1;spacingLeft=-1;spacingRight=-1;points=[];labelBackgroundColor=none;rounded=0;html=1;whiteSpace=wrap;" vertex="1" parent="1">
            <mxGeometry x="496" y="337" width="90" height="30" as="geometry" />
          </mxCell>
        </UserObject>
        <UserObject label="" tags="Background" id="8">
          <mxCell style="vsdxID=76;fillColor=none;gradientColor=none;strokeColor=none;spacingTop=-3;spacingBottom=-3;points=[];labelBackgroundColor=none;rounded=0;html=1;whiteSpace=wrap;" vertex="1" parent="1">
            <mxGeometry x="575" y="412" width="90" height="59" as="geometry" />
          </mxCell>
        </UserObject>
        <mxCell id="9" value="&lt;div style=&quot;font-size: 1px&quot;&gt;&lt;p style=&quot;text-align:justify;margin-left:0;margin-right:0;margin-top:0px;margin-bottom:0px;text-indent:0;vertical-align:bottom;direction:ltr;&quot;&gt;&lt;font style=&quot;font-size:11.29px;font-family:Arial;color:#000000;direction:ltr;letter-spacing:0px;line-height:100%;opacity:1&quot;&gt;Приложение&lt;br/&gt;&lt;/font&gt;&lt;/p&gt;&lt;/div&gt;" style="verticalAlign=bottom;align=center;overflow=width;vsdxID=78;fillColor=none;gradientColor=none;shape=stencil(nZBLDoAgDERP0z3SIyjew0SURgSD+Lu9kMZoXLhwN9O+tukAlrNpJg1SzDH4QW/URgNYgZTkjA4UkwJUgGXng+6DX1zLfmoymdXo17xh5zmRJ6Q42BWCfc2oJfdAr+Yv+AP9Cb7OJ3H/2JG1HNGz/84klThPVCc=);strokeColor=none;spacingTop=-3;spacingBottom=-3;spacingLeft=-1;spacingRight=-1;points=[];labelBackgroundColor=none;rounded=0;html=1;whiteSpace=wrap;" vertex="1" parent="8">
          <mxGeometry x="4" y="37" width="74" height="9" as="geometry" />
        </mxCell>
        <mxCell id="40" vertex="1" parent="8">
          <mxGeometry x="38" y="37" as="geometry" />
        </mxCell>
        <UserObject label="" tags="Соединительная_линия" id="41">
          <mxCell style="vsdxID=77;edgeStyle=none;startArrow=none;endArrow=block;startSize=5;endSize=5;strokeColor=#000000;spacingTop=-3;spacingBottom=-3;spacingLeft=0;spacingRight=0;verticalAlign=bottom;html=1;labelBackgroundColor=#ffffff;rounded=1;entryX=0.18333333333333332;entryY=0.9875;entryDx=0;entryDy=0;entryPerimeter=0;" edge="1" parent="8" source="40" target="2">
            <mxGeometry relative="1" as="geometry">
              <Array as="points" />
            </mxGeometry>
          </mxCell>
        </UserObject>
        <mxCell id="42" value="&lt;div style=&quot;font-size: 1px&quot;&gt;&lt;/div&gt;" style="text;vsdxID=77;edgeStyle=none;startArrow=none;endArrow=block;startSize=5;endSize=5;strokeColor=none;spacingTop=-3;spacingBottom=-3;spacingLeft=0;spacingRight=0;verticalAlign=bottom;html=1;labelBackgroundColor=#ffffff;rounded=1;align=center;overflow=width;fillColor=none;gradientColor=none;whiteSpace=wrap;;html=1;;rotation=629.95" vertex="1" parent="41">
          <mxGeometry width="11.29" height="11.29" relative="1" as="geometry">
            <mxPoint x="15.355" y="-4.645" as="offset" />
          </mxGeometry>
        </mxCell>
        <UserObject label="" tags="Background" id="10">
          <mxCell style="vsdxID=79;fillColor=none;gradientColor=none;strokeColor=none;points=[];labelBackgroundColor=none;rounded=0;html=1;whiteSpace=wrap;" vertex="1" parent="1">
            <mxGeometry x="653" y="410" width="74" height="58" as="geometry" />
          </mxCell>
        </UserObject>
        <mxCell id="11" value="&lt;div style=&quot;font-size: 1px&quot;&gt;&lt;p style=&quot;text-align:justify;margin-left:0;margin-right:0;margin-top:0px;margin-bottom:0px;text-indent:0;vertical-align:bottom;direction:ltr;&quot;&gt;&lt;font style=&quot;font-size:11.29px;font-family:Arial;color:#000000;direction:ltr;letter-spacing:0px;line-height:100%;opacity:1&quot;&gt;Пользователь&lt;br/&gt;&lt;/font&gt;&lt;/p&gt;&lt;/div&gt;" style="verticalAlign=bottom;align=center;overflow=width;vsdxID=81;fillColor=none;gradientColor=none;shape=stencil(nZBLDoAgDERP0z3SIyjew0SURgSD+Lu9kMZoXLhwN9O+tukAlrNpJg1SzDH4QW/URgNYgZTkjA4UkwJUgGXng+6DX1zLfmoymdXo17xh5zmRJ6Q42BWCfc2oJfdAr+Yv+AP9Cb7OJ3H/2JG1HNGz/84klThPVCc=);strokeColor=none;spacingTop=-3;spacingBottom=-3;spacingLeft=-1;spacingRight=-1;points=[];labelBackgroundColor=none;rounded=0;html=1;whiteSpace=wrap;" vertex="1" parent="10">
          <mxGeometry x="-2" y="40" width="85" height="9" as="geometry" />
        </mxCell>
        <mxCell id="37" vertex="1" parent="10">
          <mxGeometry x="35" y="39" as="geometry" />
        </mxCell>
        <UserObject label="" tags="Соединительная_линия" id="38">
          <mxCell style="vsdxID=80;edgeStyle=none;startArrow=none;endArrow=block;startSize=5;endSize=5;strokeColor=#000000;spacingTop=-3;spacingBottom=-3;spacingLeft=0;spacingRight=0;verticalAlign=bottom;html=1;labelBackgroundColor=#ffffff;rounded=1;entryX=0.8083333333333333;entryY=0.9875;entryDx=0;entryDy=0;entryPerimeter=0;" edge="1" parent="10" source="37" target="2">
            <mxGeometry relative="1" as="geometry">
              <Array as="points" />
            </mxGeometry>
          </mxCell>
        </UserObject>
        <mxCell id="39" value="&lt;div style=&quot;font-size: 1px&quot;&gt;&lt;/div&gt;" style="text;vsdxID=80;edgeStyle=none;startArrow=none;endArrow=block;startSize=5;endSize=5;strokeColor=none;spacingTop=-3;spacingBottom=-3;spacingLeft=0;spacingRight=0;verticalAlign=bottom;html=1;labelBackgroundColor=#ffffff;rounded=1;align=center;overflow=width;fillColor=none;gradientColor=none;whiteSpace=wrap;;html=1;;rotation=629.95" vertex="1" parent="38">
          <mxGeometry width="11.29" height="11.29" relative="1" as="geometry">
            <mxPoint x="15.355" y="-4.645" as="offset" />
          </mxGeometry>
        </mxCell>
        <UserObject label="" tags="Background" id="12">
          <mxCell style="vsdxID=83;fillColor=none;gradientColor=none;strokeColor=none;points=[];labelBackgroundColor=none;rounded=0;html=1;whiteSpace=wrap;" vertex="1" parent="1">
            <mxGeometry x="718" y="356" width="74" height="58" as="geometry" />
          </mxCell>
        </UserObject>
        <mxCell id="13" value="&lt;div style=&quot;font-size: 1px&quot;&gt;&lt;p style=&quot;text-align:justify;margin-left:0;margin-right:0;margin-top:0px;margin-bottom:0px;text-indent:0;vertical-align:bottom;direction:ltr;&quot;&gt;&lt;font style=&quot;font-size:11.29px;font-family:Arial;color:#000000;direction:ltr;letter-spacing:0px;line-height:100%;opacity:1&quot;&gt;Талон&lt;br/&gt;&lt;/font&gt;&lt;/p&gt;&lt;/div&gt;" style="verticalAlign=bottom;align=center;overflow=width;vsdxID=85;fillColor=none;gradientColor=none;shape=stencil(nZBLDoAgDERP0z3SIyjew0SURgSD+Lu9kMZoXLhwN9O+tukAlrNpJg1SzDH4QW/URgNYgZTkjA4UkwJUgGXng+6DX1zLfmoymdXo17xh5zmRJ6Q42BWCfc2oJfdAr+Yv+AP9Cb7OJ3H/2JG1HNGz/84klThPVCc=);strokeColor=none;spacingTop=-3;spacingBottom=-3;spacingLeft=-1;spacingRight=-1;points=[];labelBackgroundColor=none;rounded=0;html=1;whiteSpace=wrap;" vertex="1" parent="12">
          <mxGeometry x="14" y="-2" width="38" height="9" as="geometry" />
        </mxCell>
        <mxCell id="35" vertex="1" parent="12">
          <mxGeometry x="62" y="10" as="geometry" />
        </mxCell>
        <UserObject label="&lt;div style=&quot;font-size: 1px&quot;&gt;&lt;/div&gt;" tags="Соединительная_линия" id="36">
          <mxCell style="vsdxID=84;edgeStyle=none;startArrow=none;endArrow=block;startSize=5;endSize=5;strokeColor=#000000;spacingTop=-3;spacingBottom=-3;spacingLeft=0;spacingRight=0;verticalAlign=bottom;html=1;labelBackgroundColor=#ffffff;rounded=1;align=center;exitX=1;exitY=0.4875;exitDx=0;exitDy=0;exitPerimeter=0;" edge="1" parent="1" source="2" target="35">
            <mxGeometry relative="1" as="geometry">
              <mxPoint x="-1" as="offset" />
              <Array as="points" />
            </mxGeometry>
          </mxCell>
        </UserObject>
        <UserObject label="" tags="Background" id="14">
          <mxCell style="vsdxID=86;fillColor=none;gradientColor=none;strokeColor=none;points=[];labelBackgroundColor=none;rounded=0;html=1;whiteSpace=wrap;" vertex="1" parent="1">
            <mxGeometry x="416" y="330" width="174" height="18" as="geometry" />
          </mxCell>
        </UserObject>
        <mxCell id="15" value="&lt;div style=&quot;font-size: 1px&quot;&gt;&lt;p style=&quot;text-align:left;margin-left:0;margin-right:0;margin-top:0px;margin-bottom:0px;text-indent:0;vertical-align:bottom;direction:ltr;&quot;&gt;&lt;font style=&quot;font-size:11.29px;font-family:Arial;color:#000000;direction:ltr;letter-spacing:0px;line-height:100%;opacity:1&quot;&gt;Информация пользователя&lt;br/&gt;&lt;/font&gt;&lt;/p&gt;&lt;/div&gt;" style="verticalAlign=bottom;align=left;overflow=width;vsdxID=88;fillColor=none;gradientColor=none;shape=stencil(nZBLDoAgDERP0z3SIyjew0SURgSD+Lu9kMZoXLhwN9O+tukAlrNpJg1SzDH4QW/URgNYgZTkjA4UkwJUgGXng+6DX1zLfmoymdXo17xh5zmRJ6Q42BWCfc2oJfdAr+Yv+AP9Cb7OJ3H/2JG1HNGz/84klThPVCc=);strokeColor=none;spacingTop=-3;spacingBottom=-3;spacingLeft=-1;spacingRight=-1;points=[];labelBackgroundColor=none;rounded=0;html=1;whiteSpace=wrap;" vertex="1" parent="14">
          <mxGeometry x="4" y="3" width="166" height="13" as="geometry" />
        </mxCell>
        <mxCell id="33" vertex="1" parent="14">
          <mxGeometry x="4" y="16" as="geometry" />
        </mxCell>
        <UserObject label="&lt;div style=&quot;font-size: 1px&quot;&gt;&lt;/div&gt;" tags="Соединительная_линия" id="34">
          <mxCell style="vsdxID=87;edgeStyle=none;startArrow=none;endArrow=block;startSize=5;endSize=5;strokeColor=#000000;spacingTop=0;spacingBottom=0;spacingLeft=0;spacingRight=0;verticalAlign=middle;html=1;labelBackgroundColor=#ffffff;rounded=1;align=center;entryX=0;entryY=0.2375;entryDx=0;entryDy=0;entryPerimeter=0;" edge="1" parent="14" source="33" target="2">
            <mxGeometry relative="1" as="geometry">
              <mxPoint x="-1" as="offset" />
              <Array as="points" />
            </mxGeometry>
          </mxCell>
        </UserObject>
        <UserObject label="" tags="Background" id="16">
          <mxCell style="vsdxID=90;fillColor=none;gradientColor=none;strokeColor=none;points=[];labelBackgroundColor=none;rounded=0;html=1;whiteSpace=wrap;" vertex="1" parent="1">
            <mxGeometry x="416" y="368" width="174" height="13" as="geometry" />
          </mxCell>
        </UserObject>
        <mxCell id="17" value="&lt;div style=&quot;font-size: 1px&quot;&gt;&lt;p style=&quot;text-align:left;margin-left:0;margin-right:0;margin-top:0px;margin-bottom:0px;text-indent:0;vertical-align:bottom;direction:ltr;&quot;&gt;&lt;font style=&quot;font-size:11.29px;font-family:Arial;color:#000000;direction:ltr;letter-spacing:0px;line-height:100%;opacity:1&quot;&gt;Информация о приёме&lt;br/&gt;&lt;/font&gt;&lt;/p&gt;&lt;/div&gt;" style="verticalAlign=bottom;align=left;overflow=width;vsdxID=92;fillColor=none;gradientColor=none;shape=stencil(nZBLDoAgDERP0z3SIyjew0SURgSD+Lu9kMZoXLhwN9O+tukAlrNpJg1SzDH4QW/URgNYgZTkjA4UkwJUgGXng+6DX1zLfmoymdXo17xh5zmRJ6Q42BWCfc2oJfdAr+Yv+AP9Cb7OJ3H/2JG1HNGz/84klThPVCc=);strokeColor=none;spacingTop=-3;spacingBottom=-3;spacingLeft=-1;spacingRight=-1;points=[];labelBackgroundColor=none;rounded=0;html=1;whiteSpace=wrap;" vertex="1" parent="16">
          <mxGeometry x="4" y="7" width="166" height="11" as="geometry" />
        </mxCell>
        <mxCell id="29" vertex="1" parent="16">
          <mxGeometry x="4" y="19" as="geometry" />
        </mxCell>
        <UserObject label="&lt;div style=&quot;font-size: 1px&quot;&gt;&lt;/div&gt;" tags="Соединительная_линия" id="30">
          <mxCell style="vsdxID=91;edgeStyle=none;startArrow=none;endArrow=block;startSize=5;endSize=5;strokeColor=#000000;spacingTop=0;spacingBottom=0;spacingLeft=0;spacingRight=0;verticalAlign=middle;html=1;labelBackgroundColor=#ffffff;rounded=1;align=center;entryX=0;entryY=0.75;entryDx=0;entryDy=0;entryPerimeter=0;" edge="1" parent="16" source="29" target="2">
            <mxGeometry relative="1" as="geometry">
              <mxPoint x="-1" as="offset" />
              <Array as="points" />
            </mxGeometry>
          </mxCell>
        </UserObject>
        <UserObject label="&lt;div style=&quot;font-size: 1px&quot;&gt;&lt;font style=&quot;font-size:11.29px;font-family:Arial;color:#000000;direction:ltr;letter-spacing:0px;line-height:120%;opacity:1&quot;&gt;Информация о враче&lt;br/&gt;&lt;/font&gt;&lt;/div&gt;" tags="Background" id="18">
          <mxCell style="verticalAlign=bottom;align=left;overflow=width;vsdxID=93;fillColor=none;gradientColor=none;shape=stencil(nZBLDoAgDERP0z3SIyjew0SURgSD+Lu9kMZoXLhwN9O+tukAlrNpJg1SzDH4QW/URgNYgZTkjA4UkwJUgGXng+6DX1zLfmoymdXo17xh5zmRJ6Q42BWCfc2oJfdAr+Yv+AP9Cb7OJ3H/2JG1HNGz/84klThPVCc=);strokeColor=none;spacingTop=-3;spacingBottom=-3;spacingLeft=-1;spacingRight=-1;points=[];labelBackgroundColor=none;rounded=0;html=1;whiteSpace=wrap;" vertex="1" parent="1">
            <mxGeometry x="420" y="354" width="170" height="13" as="geometry" />
          </mxCell>
        </UserObject>
        <UserObject label="" tags="Background" id="19">
          <mxCell style="vsdxID=96;fillColor=none;gradientColor=none;strokeColor=none;points=[];labelBackgroundColor=none;rounded=0;html=1;whiteSpace=wrap;" vertex="1" parent="1">
            <mxGeometry x="544" y="242" width="74" height="75" as="geometry" />
          </mxCell>
        </UserObject>
        <mxCell id="20" value="&lt;div style=&quot;font-size: 1px&quot;&gt;&lt;font style=&quot;font-size:11.29px;font-family:Arial;color:#000000;direction:ltr;letter-spacing:0px;line-height:120%;opacity:1&quot;&gt;Доступ к созданию записи&lt;br/&gt;&lt;/font&gt;&lt;/div&gt;" style="verticalAlign=middle;align=left;overflow=width;vsdxID=98;fillColor=none;gradientColor=none;shape=stencil(nZBLDoAgDERP0z3SIyjew0SURgSD+Lu9kMZoXLhwN9O+tukAlrNpJg1SzDH4QW/URgNYgZTkjA4UkwJUgGXng+6DX1zLfmoymdXo17xh5zmRJ6Q42BWCfc2oJfdAr+Yv+AP9Cb7OJ3H/2JG1HNGz/84klThPVCc=);strokeColor=none;spacingTop=-1;spacingBottom=-1;spacingLeft=-1;spacingRight=-1;points=[];labelBackgroundColor=none;rounded=0;html=1;whiteSpace=wrap;" vertex="1" parent="19">
          <mxGeometry x="50" y="17" width="74" height="30" as="geometry" />
        </mxCell>
        <mxCell id="23" vertex="1" parent="19">
          <mxGeometry x="84" y="52" as="geometry" />
        </mxCell>
        <UserObject label="" tags="Соединительная_линия" id="24">
          <mxCell style="vsdxID=97;edgeStyle=none;startArrow=none;endArrow=block;startSize=5;endSize=5;strokeColor=#000000;spacingTop=0;spacingBottom=0;spacingLeft=0;spacingRight=0;verticalAlign=middle;html=1;labelBackgroundColor=#ffffff;rounded=1;entryX=0.30833333333333335;entryY=0;entryDx=0;entryDy=0;entryPerimeter=0;" edge="1" parent="19" source="23" target="2">
            <mxGeometry relative="1" as="geometry">
              <Array as="points" />
            </mxGeometry>
          </mxCell>
        </UserObject>
        <mxCell id="25" value="&lt;div style=&quot;font-size: 1px&quot;&gt;&lt;/div&gt;" style="text;vsdxID=97;edgeStyle=none;startArrow=none;endArrow=block;startSize=5;endSize=5;strokeColor=none;spacingTop=0;spacingBottom=0;spacingLeft=0;spacingRight=0;verticalAlign=middle;html=1;labelBackgroundColor=#ffffff;rounded=1;align=center;overflow=width;fillColor=none;gradientColor=none;whiteSpace=wrap;;html=1;;rotation=270.0500065082204" vertex="1" parent="24">
          <mxGeometry width="11.29" height="24.84" relative="1" as="geometry">
            <mxPoint x="10.355" y="-12.42" as="offset" />
          </mxGeometry>
        </mxCell>
        <UserObject label="" tags="Background" id="21">
          <mxCell style="vsdxID=99;fillColor=none;gradientColor=none;strokeColor=none;points=[];labelBackgroundColor=none;rounded=0;html=1;whiteSpace=wrap;" vertex="1" parent="1">
            <mxGeometry x="648" y="256" width="80" height="61" as="geometry" />
          </mxCell>
        </UserObject>
        <mxCell id="22" value="&lt;div style=&quot;font-size: 1px&quot;&gt;&lt;font style=&quot;font-size:11.29px;font-family:Arial;color:#000000;direction:ltr;letter-spacing:0px;line-height:120%;opacity:1&quot;&gt;Лимит на количество талонов&lt;br/&gt;&lt;/font&gt;&lt;/div&gt;" style="verticalAlign=middle;align=left;overflow=width;vsdxID=95;fillColor=none;gradientColor=none;shape=stencil(nZBLDoAgDERP0z3SIyjew0SURgSD+Lu9kMZoXLhwN9O+tukAlrNpJg1SzDH4QW/URgNYgZTkjA4UkwJUgGXng+6DX1zLfmoymdXo17xh5zmRJ6Q42BWCfc2oJfdAr+Yv+AP9Cb7OJ3H/2JG1HNGz/84klThPVCc=);strokeColor=none;spacingTop=-1;spacingBottom=-1;spacingLeft=-1;spacingRight=-1;points=[];labelBackgroundColor=none;rounded=0;html=1;whiteSpace=wrap;" vertex="1" parent="21">
          <mxGeometry x="11" y="-2" width="66" height="40" as="geometry" />
        </mxCell>
        <mxCell id="26" vertex="1" parent="21">
          <mxGeometry x="25" y="38" as="geometry" />
        </mxCell>
        <UserObject label="" tags="Соединительная_линия" id="27">
          <mxCell style="vsdxID=94;edgeStyle=none;startArrow=none;endArrow=block;startSize=5;endSize=5;strokeColor=#000000;spacingTop=0;spacingBottom=0;spacingLeft=0;spacingRight=0;verticalAlign=middle;html=1;labelBackgroundColor=#ffffff;rounded=1;entryX=0.6833333333333333;entryY=0;entryDx=0;entryDy=0;entryPerimeter=0;" edge="1" parent="21" source="26" target="2">
            <mxGeometry relative="1" as="geometry">
              <Array as="points" />
            </mxGeometry>
          </mxCell>
        </UserObject>
        <mxCell id="28" value="&lt;div style=&quot;font-size: 1px&quot;&gt;&lt;/div&gt;" style="text;vsdxID=94;edgeStyle=none;startArrow=none;endArrow=block;startSize=5;endSize=5;strokeColor=none;spacingTop=0;spacingBottom=0;spacingLeft=0;spacingRight=0;verticalAlign=middle;html=1;labelBackgroundColor=#ffffff;rounded=1;align=center;overflow=width;fillColor=none;gradientColor=none;whiteSpace=wrap;;html=1;;rotation=270.05" vertex="1" parent="27">
          <mxGeometry width="11.29" height="24.84" relative="1" as="geometry">
            <mxPoint x="10.355" y="-12.42" as="offset" />
          </mxGeometry>
        </mxCell>
        <mxCell id="31" vertex="1" parent="1">
          <mxGeometry x="420" y="367" as="geometry" />
        </mxCell>
        <UserObject label="&lt;div style=&quot;font-size: 1px&quot;&gt;&lt;/div&gt;" tags="Соединительная_линия" id="32">
          <mxCell style="vsdxID=89;edgeStyle=none;startArrow=none;endArrow=block;startSize=5;endSize=5;strokeColor=#000000;spacingTop=0;spacingBottom=0;spacingLeft=0;spacingRight=0;verticalAlign=middle;html=1;labelBackgroundColor=#ffffff;rounded=1;align=center;entryX=0;entryY=0.5;entryDx=0;entryDy=0;entryPerimeter=0;" edge="1" parent="1" source="31" target="2">
            <mxGeometry relative="1" as="geometry">
              <mxPoint x="-1" as="offset" />
              <Array as="points" />
            </mxGeometry>
          </mxCell>
        </UserObject>
        <UserObject label="" tags="Соединительная_линия Блок-схема Соединительная_линия" id="43">
          <mxCell vertex="1" parent="1" visible="0">
            <mxGeometry as="geometry" />
          </mxCell>
        </UserObject>
      </root>
    </mxGraphModel>
  </diagram>
</mxfile>
